<svg id="Layer_1" data-name="Layer 1" xmlns="http://www.w3.org/2000/svg" viewBox="0 0 591.72 329.41"><path d="M291.83,72.86h17.51q11.57,43,23.08,85.79l.44-.06c6.29-19,12.59-37.95,19-57.15-.6-.39-1.14-.82-1.72-1.13-7.16-3.81-10.84-10.53-12-19.32-1.16-9,1.86-16.68,6.77-23.24,3.91-5.23,8.37-9.92,12.68-14.73,8.65-9.66,15.27-21,21-33.14a2.08,2.08,0,0,1,.79-1c.39,1.7.8,3.4,1.16,5.11q4.23,20.35,8.44,40.73c1.63,7.89,2.85,15.81,2,24-1.44,14.2-11.55,25.12-23.84,25.62-.48,0-1,.06-1.64.11L339.76,183H321.44q-11.29-42.15-22.64-84.51l-.46-.08L274.62,183H256.51Q240,128.21,223.27,73h17.47q13.09,43.16,26.28,86.58h.51Q279.67,116.29,291.83,72.86Zm78.34-1.57a16.62,16.62,0,0,1-4.64,8.58,47.61,47.61,0,0,1-16,9.66c-.65.23-1.27.57-1.91.87l.15.55c2.89-.77,5.83-1.38,8.68-2.35s5.69-2.35,8.72-3.63c-2.13,4.35-4,8.67-4.73,13.49l.35.24,6.3-11.21c4.75,3.92,9.5,5.1,11.89,3.07-6.22-2.64-7.62-3.56-9.86-6.52l5.4-12.2c4.09-.51,7.85-2,10.52-5.92-1.52.5-3,1.17-4.44,1.79a6.94,6.94,0,0,1-4.52.33c1.06-6.64,2.36-13.06,3.05-19.57.91-8.54.42-17.86-.75-19.91-.63,13.53-2.52,26.42-6.86,38.78a30.94,30.94,0,0,1-11.59-10.75A29.08,29.08,0,0,0,370.17,71.29Z" transform="translate(-11.03 -8.9)"/><path d="M39.72,330.54v-7.83H574v7.83Z" transform="translate(-11.03 -8.9)"/><path d="M189.23,171.54V135.7h18v44.57c-3.42.76-6.82,1.61-10.24,2.25-11.61,2.18-23.26,3.91-35,3.38-11.48-.51-22.77-2.48-33.3-8.23-14.66-8-23.42-21.18-25.48-40-1.19-10.92-.63-21.65,2.84-32A47.58,47.58,0,0,1,125.77,80.3c8.92-5.86,18.65-8.69,28.84-9.63a141.45,141.45,0,0,1,28.95.27c7.71.88,15.36,2.55,23,3.88.11,0,.21.14.45.32V89l-2.13-.53c-7.3-1.76-14.55-3.83-21.9-5.23-11.22-2.13-22.57-3.11-33.67.59-14.25,4.75-23.67,15.22-26.53,32.59-1.72,10.44-1.47,20.8,2,30.75,4.65,13.14,13.54,20.62,25,24.46A60.44,60.44,0,0,0,172,174.54,67.86,67.86,0,0,0,189.23,171.54Z" transform="translate(-11.03 -8.9)"/><path d="M490.22,164.37v13.21c-2.52,1-5.09,2.06-7.7,2.95a105.14,105.14,0,0,1-39.17,5.34c-10.37-.48-20.57-2.36-30.15-7.31-16.53-8.53-25.85-23.1-27.39-44.19a73.16,73.16,0,0,1,3.47-29.64,47.06,47.06,0,0,1,16.38-22.35,57,57,0,0,1,25.26-10.79,114.36,114.36,0,0,1,31.83-.87c8.81.92,17.57,2.57,26.35,3.91A5.16,5.16,0,0,1,490,75v14.2c-3.73-1-7.34-2-11-3-11.72-3-23.51-5.34-35.6-4.46-7.48.55-14.64,2.46-21.14,7-9.55,6.59-15,16.44-16.75,29.06a63.6,63.6,0,0,0,.9,24.67c3.42,13.52,11.32,22.26,22.45,27.25,8.54,3.83,17.48,4.72,26.53,4.13,11.27-.74,22.08-3.91,32.61-8.5Z" transform="translate(-11.03 -8.9)"/><path d="M395.3,277.09V217.9h9V295H393.89l-38-59.32-.37.12V295h-9V217.87h10.35l38,59.42Z" transform="translate(-11.03 -8.9)"/><path d="M44,256.56c.13-9.16,1.81-17.74,6.57-25.25,6.63-10.46,15.87-14.91,26.74-15.44,6.72-.33,13.34.44,19.49,3.91,10.08,5.67,16,15.07,17.89,27.81a54.32,54.32,0,0,1-2.15,26.54c-4.46,12.47-12.83,19.6-24.06,22.14-8,1.8-16,1.64-23.64-1.92C53.43,289,46.82,279.06,44.77,265,44.36,262.23,44.27,259.38,44,256.56Zm60.12-1.75c-.21-1.89-.38-5.52-1-9-1.51-8.09-4.86-14.8-11.39-18.87-4.78-3-9.94-3.38-15.17-2.87-8,.77-14.13,5.1-17.62,13.55-4.86,11.78-4.76,23.93-.71,35.93,2.52,7.45,7.29,12.66,14.09,14.61a30.29,30.29,0,0,0,9.81.93c7.19-.38,13-4,17.14-11C103.06,271.54,103.92,264.14,104.16,254.81Z" transform="translate(-11.03 -8.9)"/><path d="M141.15,295.09H130.77V217.73h1.93c7.65,0,15.3-.14,23,.12a31.73,31.73,0,0,1,9.37,1.74c8.65,3.06,12.24,10.75,10.93,21.13-1,7.63-5.09,12.51-10.72,16-1.34.83-2.74,1.52-4.36,2.41,4.25,6.07,8.39,12,12.53,17.93s8.22,11.8,12.52,18h-13l-21.49-32.63H141.15Zm.11-69.44v28.71c2.5,0,4.87.15,7.23,0,4-.3,7.89-1.16,11.31-3.77,4.65-3.54,5.92-8.87,5.31-14.84-.51-4.9-3.61-7.37-7.4-8.67C152.36,225.23,146.86,225.63,141.26,225.65Z" transform="translate(-11.03 -8.9)"/><path d="M335,295.1H323.57q-4.14-10.64-8.29-21.34H282.9l-8.38,21.35h-9.77c10.06-25.91,20-51.61,30-77.31h10.66C315.22,243.36,325.07,269.06,335,295.1Zm-35.71-62.66-.49,0c-4.27,11-8.53,22-12.88,33.2h26.27C307.86,254.41,303.59,243.43,299.33,232.44Z" transform="translate(-11.03 -8.9)"/><path d="M243.87,287.23V262.09h10.42v31.15c-3.44.84-6.93,1.81-10.46,2.53-7.62,1.57-15.29,2.15-23,.61-8.09-1.63-15.38-5.11-20.78-12.71a38.06,38.06,0,0,1-6.44-17.16c-1.32-9.52-1.18-19,2-28s8.82-15.3,16.55-19.17a35.35,35.35,0,0,1,14.29-3.39,86.88,86.88,0,0,1,26.57,2.87c.36.09.7.24,1.15.4v9.74c-4.15-1.17-8.22-2.4-12.32-3.47a40,40,0,0,0-17.66-1.07c-9.61,1.82-15.69,8.45-18.51,19.08a50.74,50.74,0,0,0-.36,24.37c2.65,11.68,9.47,18.41,19.55,20.67A35.41,35.41,0,0,0,243.87,287.23Z" transform="translate(-11.03 -8.9)"/><path d="M511.62,291.25a44.94,44.94,0,0,1-16.45,5.45c-7.65,1-15.22.77-22.68-1.89-11.45-4.08-18.59-12.88-21.11-26.32-1.87-10-1.77-20,1.58-29.72,3.16-9.16,8.83-15.49,16.59-19.4,7-3.52,14.38-3.76,21.8-3.47A103.46,103.46,0,0,1,511.61,219v10c-3.73-1.08-7.39-2.16-11.05-3.19a48.58,48.58,0,0,0-15.47-1.83c-11.24.51-19.45,8-22.37,20.63a50.57,50.57,0,0,0-.14,22.73c2.7,11.92,10.65,19.83,21.23,21.25,8.09,1.09,15.83-.63,23.31-4.15,1.46-.69,2.89-1.44,4.5-2.24Z" transform="translate(-11.03 -8.9)"/><path d="M564.38,218.69v9.65c-2.65-.89-5.14-1.76-7.64-2.58A32.19,32.19,0,0,0,545,223.91a12.42,12.42,0,0,0-8.29,3.45c-4.2,4-4.44,10.6-.1,14.48a86.66,86.66,0,0,0,10.24,7.4c4.76,3.18,9.69,6,14.4,9.28,11.09,7.67,10.84,27.13-1.94,34.51a30.67,30.67,0,0,1-13.56,4.13c-7.7.51-15.19-1.15-22.62-3.45V283.36c3.08,1.22,6,2.43,9,3.51a33.89,33.89,0,0,0,13.73,2.27,14.3,14.3,0,0,0,8-2.79c5.42-4.05,6.31-13.22,1.44-18.12-2.5-2.52-5.55-4.34-8.45-6.28-4.87-3.25-9.93-6.14-14.7-9.56-4.08-2.93-7.39-6.87-8.33-12.66-1-6,.21-11.36,3.88-15.92,4.32-5.38,9.85-7.51,15.94-7.91a58.73,58.73,0,0,1,19.81,2.4C563.66,218.38,563.94,218.52,564.38,218.69Z" transform="translate(-11.03 -8.9)"/><path d="M434.81,295.05H424.48V217.86h10.33Z" transform="translate(-11.03 -8.9)"/><path d="M21.31,338.24C15.42,338.19,11,333.18,11,326.52S15.6,314.93,21.47,315s10.34,5.27,10.33,11.74C31.78,333.82,25.82,339,21.31,338.24Z" transform="translate(-11.03 -8.9)"/><path d="M592.41,338.25c-6-.09-10.53-5.26-10.44-12,.08-5.14,4-11.6,10.94-11.28,5.42.25,9.88,5.4,9.84,11.65C602.71,333.22,598.18,338.34,592.41,338.25Z" transform="translate(-11.03 -8.9)"/></svg>